<svg width="50" height="50" viewBox="0 0 50 50" fill="none" xmlns="http://www.w3.org/2000/svg">
<path d="M22.1716 2.82843C23.7337 1.26633 26.2663 1.26633 27.8284 2.82843L46.9203 21.9203C48.4824 23.4824 48.4824 26.0151 46.9203 27.5772L27.8284 46.669C26.2663 48.2311 23.7337 48.2311 22.1716 46.669L3.07969 27.5772C1.51759 26.0151 1.51759 23.4824 3.07969 21.9203L22.1716 2.82843Z" fill="#24C178"/>
<path fill-rule="evenodd" clip-rule="evenodd" d="M23.2521 16.6681C23.7116 15.9788 24.6429 15.7926 25.3322 16.2521L40.3322 26.2521C41.0215 26.7116 41.2078 27.6429 40.7482 28.3322C40.2887 29.0215 39.3574 29.2078 38.6681 28.7482L23.6681 18.7482C22.9788 18.2887 22.7926 17.3574 23.2521 16.6681Z" fill="white"/>
<path fill-rule="evenodd" clip-rule="evenodd" d="M25.7484 16.6681C25.2889 15.9788 24.3576 15.7926 23.6683 16.2521L8.66828 26.2521C7.97898 26.7116 7.79272 27.6429 8.25225 28.3322C8.71178 29.0215 9.64309 29.2078 10.3324 28.7482L25.3324 18.7482C26.0217 18.2887 26.2079 17.3574 25.7484 16.6681Z" fill="white"/>
<path fill-rule="evenodd" clip-rule="evenodd" d="M24.3461 1.48201C23.6609 1.46911 23.1077 2.00893 23.1105 2.68774L23.1714 17.4595C23.1742 18.1384 23.7319 18.6991 24.4172 18.712C25.1024 18.7249 25.6556 18.1851 25.6528 17.5063L25.5919 2.73446C25.5891 2.05565 25.0313 1.49491 24.3461 1.48201Z" fill="white"/>
</svg>
